<svg xmlns="http://www.w3.org/2000/svg" width="900" height="752">
<style>text{font:14px sans-serif}.bar{fill:#3973ac}.na{fill:#777}</style>
<text x="20" y="28">User overlap/config → publisher-to-relay wire bytes</text>
<text x="20" y="70">forward_f1/user_0</text>
<rect class="bar" x="220" y="55" width="58" height="18"/>
<text x="850" y="70" text-anchor="end">779669.000</text>
<text x="20" y="100">forward_f1/user_0</text>
<rect class="bar" x="220" y="85" width="58" height="18"/>
<text x="850" y="100" text-anchor="end">779816.000</text>
<text x="20" y="130">forward_f1/user_0</text>
<rect class="bar" x="220" y="115" width="58" height="18"/>
<text x="850" y="130" text-anchor="end">779279.000</text>
<text x="20" y="160">forward_f0/user_0</text>
<rect class="bar" x="220" y="145" width="58" height="18"/>
<text x="850" y="160" text-anchor="end">780345.000</text>
<text x="20" y="190">forward_f0/user_0</text>
<rect class="bar" x="220" y="175" width="58" height="18"/>
<text x="850" y="190" text-anchor="end">779255.000</text>
<text x="20" y="220">forward_f0/user_0</text>
<rect class="bar" x="220" y="205" width="58" height="18"/>
<text x="850" y="220" text-anchor="end">780107.000</text>
<text x="20" y="250">forward_0_to_1/user_0</text>
<rect class="bar" x="220" y="235" width="58" height="18"/>
<text x="850" y="250" text-anchor="end">779396.000</text>
<text x="20" y="280">forward_0_to_1/user_0</text>
<rect class="bar" x="220" y="265" width="58" height="18"/>
<text x="850" y="280" text-anchor="end">778985.000</text>
<text x="20" y="310">forward_0_to_1/user_0</text>
<rect class="bar" x="220" y="295" width="58" height="18"/>
<text x="850" y="310" text-anchor="end">779815.000</text>
<text x="20" y="340">forward_1_to_0/user_0</text>
<rect class="bar" x="220" y="325" width="58" height="18"/>
<text x="850" y="340" text-anchor="end">778702.000</text>
<text x="20" y="370">forward_1_to_0/user_0</text>
<rect class="bar" x="220" y="355" width="58" height="18"/>
<text x="850" y="370" text-anchor="end">778843.000</text>
<text x="20" y="400">forward_1_to_0/user_0</text>
<rect class="bar" x="220" y="385" width="58" height="18"/>
<text x="850" y="400" text-anchor="end">778778.000</text>
<text x="20" y="430">fanout/user_a</text>
<rect class="bar" x="220" y="415" width="618" height="18"/>
<text x="850" y="430" text-anchor="end">8265007.000</text>
<text x="20" y="460">fanout/user_b</text>
<rect class="bar" x="220" y="445" width="618" height="18"/>
<text x="850" y="460" text-anchor="end">8265007.000</text>
<text x="20" y="490">fanout/user_a</text>
<rect class="bar" x="220" y="475" width="618" height="18"/>
<text x="850" y="490" text-anchor="end">8268170.000</text>
<text x="20" y="520">fanout/user_b</text>
<rect class="bar" x="220" y="505" width="618" height="18"/>
<text x="850" y="520" text-anchor="end">8268170.000</text>
<text x="20" y="550">fanout/user_a</text>
<rect class="bar" x="220" y="535" width="619" height="18"/>
<text x="850" y="550" text-anchor="end">8271069.000</text>
<text x="20" y="580">fanout/user_b</text>
<rect class="bar" x="220" y="565" width="619" height="18"/>
<text x="850" y="580" text-anchor="end">8271069.000</text>
<text x="20" y="610">reactive/user_0</text>
<rect class="bar" x="220" y="595" width="620" height="18"/>
<text x="850" y="610" text-anchor="end">8282542.000</text>
<text x="20" y="640">reactive/user_0</text>
<rect class="bar" x="220" y="625" width="619" height="18"/>
<text x="850" y="640" text-anchor="end">8278509.000</text>
<text x="20" y="670">reactive/user_0</text>
<rect class="bar" x="220" y="655" width="619" height="18"/>
<text x="850" y="670" text-anchor="end">8274280.000</text>
</svg>
